<?xml version="1.0" encoding="UTF-8" standalone="no"?>
<!DOCTYPE svg PUBLIC "-//W3C//DTD SVG 1.1//EN" "http://www.w3.org/Graphics/SVG/1.1/DTD/svg11.dtd">
<svg width="100%" height="100%" viewBox="0 0 512 512" version="1.1" xmlns="http://www.w3.org/2000/svg" xmlns:xlink="http://www.w3.org/1999/xlink" xml:space="preserve" xmlns:serif="http://www.serif.com/" style="fill-rule:evenodd;clip-rule:evenodd;stroke-linejoin:round;stroke-miterlimit:2;">
    <g transform="matrix(1,0,0,1,-1808.52,-1866.22)">
        <g id="Max_On_White_Abstract" transform="matrix(1,0,0,1,1204.52,1866.22)">
            <rect x="604" y="0" width="512" height="512" style="fill:none;"/>
            <clipPath id="_clip1">
                <rect x="604" y="0" width="512" height="512"/>
            </clipPath>
            <g clip-path="url(#_clip1)">
                <g id="BG" transform="matrix(1,0,0,1,604,0)">
                    <rect x="0" y="0" width="512" height="512" style="fill:white;fill-rule:nonzero;"/>
                    <g transform="matrix(0.75,0,0,0.75,-838.467,-857.56)">
                        <circle cx="1329" cy="1616" r="60"/>
                    </g>
                    <g transform="matrix(1.07822,0,0,0.836376,-1423.59,-1013.2)">
                        <path d="M1690.96,1344.07L1588.94,1489.5L1588.94,1689L1690.96,1689L1690.96,1344.07Z"/>
                    </g>
                    <g transform="matrix(0.625941,-0.877933,0.526801,0.375594,-1658.56,1082.75)">
                        <path d="M1687.82,1357.96L1590.68,1473.37L1588.94,1689L1690.96,1689L1687.82,1357.96Z"/>
                    </g>
                </g>
                <g id="Logo">
                </g>
            </g>
        </g>
    </g>
</svg>
