<?xml version="1.0" standalone="no"?>
<!DOCTYPE svg PUBLIC "-//W3C//DTD SVG 20010904//EN"
 "http://www.w3.org/TR/2001/REC-SVG-20010904/DTD/svg10.dtd">
<svg version="1.0" xmlns="http://www.w3.org/2000/svg"
 width="512.000000pt" height="512.000000pt" viewBox="0 0 512.000000 512.000000"
 preserveAspectRatio="xMidYMid meet">
<metadata>
Created by potrace 1.11, written by Peter Selinger 2001-2013
</metadata>
<g transform="translate(0.000000,512.000000) scale(0.100000,-0.100000)"
fill="#000000" stroke="none">
<path d="M0 2560 l0 -2560 2560 0 2560 0 0 2560 0 2560 -2560 0 -2560 0 0
-2560z m3930 30 c315 -701 579 -1291 587 -1310 17 -40 42 -63 -967 909 -366
352 -668 637 -672 633 -3 -4 -162 -357 -354 -785 -191 -428 -350 -774 -355
-770 -4 4 -114 226 -244 493 -130 267 -239 488 -243 492 -4 3 -176 -158 -382
-358 -206 -200 -441 -428 -522 -505 l-148 -141 24 53 c13 30 270 596 571 1259
301 663 554 1221 562 1240 l15 35 245 -488 244 -489 177 171 c97 93 335 323
527 510 193 187 353 336 357 333 3 -4 264 -581 578 -1282z"/>
</g>
</svg>
