<?xml version="1.0" standalone="no"?>
<!DOCTYPE svg PUBLIC "-//W3C//DTD SVG 20010904//EN"
 "http://www.w3.org/TR/2001/REC-SVG-20010904/DTD/svg10.dtd">
<svg version="1.0" xmlns="http://www.w3.org/2000/svg"
 width="2150.000000pt" height="2150.000000pt" viewBox="0 0 2150.000000 2150.000000"
 preserveAspectRatio="xMidYMid meet">
<metadata>
Created by potrace 1.14, written by Peter Selinger 2001-2017
</metadata>
<g transform="translate(0.000000,2150.000000) scale(0.100000,-0.100000)"
fill="#000000" stroke="none">
<path d="M12630 13784 c-101 -21 -169 -54 -445 -214 -88 -51 -173 -100 -190
-110 -16 -9 -88 -51 -160 -92 -71 -42 -146 -85 -165 -96 -61 -34 -664 -381
-680 -391 -8 -5 -125 -73 -259 -150 l-243 -141 -371 371 c-436 434 -455 453
-527 506 -102 76 -239 141 -365 176 -54 14 -81 20 -165 32 -70 11 -226 6 -325
-10 -151 -25 -335 -103 -463 -197 -72 -53 -9 8 -550 -531 l-469 -467 -45 47
c-115 122 -618 613 -650 634 -195 132 -298 188 -438 239 -421 151 -887 119
-1280 -87 -188 -98 -280 -173 -587 -477 -156 -155 -286 -283 -288 -285 -2 -2
-19 9 -37 25 -84 74 -261 192 -404 269 -257 140 -597 240 -913 270 -53 5 -361
6 -407 1 -333 -35 -578 -103 -854 -238 -467 -227 -849 -601 -1086 -1063 -139
-271 -215 -527 -254 -855 -13 -109 -4 -477 14 -595 64 -401 212 -758 452
-1082 239 -323 599 -609 967 -767 20 -9 52 -23 71 -31 135 -60 430 -134 591
-150 33 -3 76 -8 95 -11 60 -10 353 -6 461 6 460 51 910 240 1262 529 l83 69
267 -264 c292 -289 394 -370 585 -467 337 -172 738 -216 1112 -122 207 52 385
137 567 271 43 31 220 198 393 370 174 173 319 314 323 314 4 0 221 -213 482
-473 495 -495 543 -537 710 -619 104 -52 189 -77 344 -103 56 -9 212 -9 282 0
192 25 371 98 529 216 41 30 243 223 448 429 205 205 374 371 376 369 3 -4
115 -197 144 -249 25 -45 65 -115 206 -358 154 -266 200 -331 281 -395 120
-94 255 -139 408 -136 146 3 224 29 401 133 50 29 199 116 331 191 132 76 300
173 374 217 73 43 135 78 137 78 3 0 23 11 45 26 22 14 56 34 75 45 33 18 158
91 388 223 54 32 100 55 103 53 5 -5 40 -133 49 -177 2 -14 9 -36 14 -50 5
-14 30 -104 55 -200 26 -96 57 -193 70 -216 52 -90 153 -153 254 -159 61 -4
79 -1 286 56 77 21 194 52 260 69 223 59 329 87 525 140 107 28 251 67 320 85
425 113 1001 267 1035 277 22 6 47 13 55 15 8 1 112 29 230 61 200 54 215 57
220 40 3 -11 4 -82 3 -159 -1 -136 -1 -139 20 -140 12 -1 1094 -2 2404 -3
l2383 -1 0 2405 0 2405 -2197 0 -2197 0 -44 155 c-24 85 -50 162 -58 171 -8 8
-14 19 -14 24 0 21 -99 96 -152 116 -94 35 -150 26 -613 -100 -225 -62 -418
-114 -427 -116 -9 -2 -144 -38 -300 -80 -156 -42 -314 -85 -353 -95 -38 -11
-97 -26 -130 -35 -33 -9 -68 -18 -77 -21 -10 -2 -26 -6 -35 -9 -178 -47 -248
-66 -294 -79 -31 -9 -66 -18 -78 -21 -11 -2 -69 -17 -129 -34 -59 -17 -143
-40 -187 -51 -44 -12 -105 -28 -135 -36 -30 -9 -62 -17 -70 -19 -8 -2 -84 -22
-168 -45 -85 -23 -155 -40 -157 -38 -1 2 -46 80 -100 173 -53 94 -100 175
-105 180 -4 6 -21 35 -37 65 -17 30 -59 104 -94 163 -35 60 -69 118 -76 130
-23 41 -140 152 -195 185 -103 61 -180 83 -308 87 -63 2 -126 1 -140 -1z"/>
</g>
</svg>
